<svg xmlns="http://www.w3.org/2000/svg" id="Layer_1" x="0" y="0" version="1.1" viewBox="0 0 512 512" xml:space="preserve">
  <defs/>
  <style>
    .st1{fill:#ffcb8d}
  </style>
  <path fill="#525380" d="M119.4 46.9l-.5 148.3c0 16 101.3 17.3 114.7 24.2l142.6.1a47.16 47.16 0 0026.9-42.5V81.9c0-39.7-32.2-71.9-72-71.9h-47.9c-39.8 0-163.8-2.8-163.8 36.9z"/>
  <path d="M137 149.4c.4.1.8.1 1.2.1v-.1H137z" class="st1"/>
  <path fill="#fff" d="M211.1 213.4v-98.5a76.24 76.24 0 01-73 34.7v63.8c0 64.7 52.5 117.1 117.3 117.1 12.7 0 25-2 36.5-5.8-46.9-15.3-80.8-59.3-80.8-111.3z"/>
  <path d="M372.7 117.6v3.7c.4-.2.8-.5 1.1-.7l-1.1-3zm-7.5 122.3l7.6-116.2c-18.9 12.5-80 28.9-102.5 19.4-32.3-13.6-23.4-7.2-45.3-31.4-1.8 4.7-80.8 35.2-83.5 39.4l3.4 92.1c0 52 61.5 70.1 110.6 83.5 46.9-15.3 109.7-34.9 109.7-86.8z" class="st1"/>
  <path fill="#e24050" d="M358.5 381.3l-74-22c-9.9-4.7-18-11.5-23.6-19.3-5.6 7.9-13.7 14.6-23.6 19.3l-74 22C108.6 397.7 72 440.5 72 488.5V502h378v-13.5c0-48-36.6-90.8-91.5-107.2z"/>
  <path d="M283.6 290.6s-24.8-1.6-50.4.6L206.3 359l49.7 68 51-68-23.4-68.4z" class="st1"/>
  <path d="M383 379.8l-56-20.2a40.24 40.24 0 01-19.1-30.3c40-18.1 69-56.2 74.1-101.5a57.3 57.3 0 0031.1-50.8V81.9C413 36.7 376.2 0 331 0H185.4c-45.2 0-82 36.7-82 81.9v100.7c0 18.4 9.7 35.1 25.4 44.4 4.9 46 34.5 84.8 75.3 102.8a39.98 39.98 0 01-19.1 29.8l-56 20.2a116.8 116.8 0 00-77 109.6V502c0 5.5 4.5 10 10 10h388c5.5 0 10-4.5 10-10v-12.6c0-48.9-30.9-92.9-77-109.6zM148.1 213.4v-53.3c17.2-.3 33.8-5.5 47.9-15.4 10.1-7 18.4-15.9 24.7-26.2 14.7 13.1 32.2 22.7 51.3 28a9.95 9.95 0 0012.3-7 9.95 9.95 0 00-7-12.3c-20-5.6-38-16.7-52-32.2-2.3-2.6-5.8-3.8-9.2-3.1s-6.3 3-7.5 6.2a65.92 65.92 0 01-61.8 42.1c-2.9 0-5.8-.7-8.7-.7-5.5 0-10 4.5-10 10v49.7c-3-4.9-4.7-10.6-4.7-16.6V81.9c0-34.1 27.8-61.9 62-61.9H331c34.2 0 62 27.8 62 61.9V177c0 9.6-3.8 18.8-10.3 25.6v-85c0-5.5-4.5-10-10-10-4.9 0-9 3.5-9.8 8.2-8.9 5.9-15.4 8.2-26.8 11.4-5.3 1.5-8.4 7-7 12.3a9.93 9.93 0 0012.3 6.9c8.2-2.3 14.8-4.4 21.3-7.6v74.5c0 59.1-48.1 107.1-107.3 107.1-59.1.1-107.3-47.9-107.3-107zM440 492H72v-2.6c0-40.5 25.6-77 63.8-90.8l56.9-20.6c.6-.2 1.1-.5 1.6-.8 3-1.7 5.8-3.7 8.4-5.9l26.7 42.9c1.9 3 5.2 4.7 8.5 4.7 1.8 0 3.6-.5 5.3-1.5 4.7-2.9 6.1-9.1 3.2-13.8l-30.1-48.4c3.4-5.8 5.8-12.2 7-18.9 10.3 2.7 21 4.1 32.1 4.1 11.5 0 22.6-1.5 33.2-4.4 1.3 6.7 3.7 13.2 7 19.1l-31 48.4a10.02 10.02 0 008.4 15.4c3.3 0 6.5-1.6 8.4-4.6l27.6-43.1c2.7 2.2 5.5 4.3 8.6 6 .5.3 1.1.6 1.6.8l56.9 20.6a96.82 96.82 0 0163.8 90.8v2.6z"/>
  <path d="M261.4 428.5c-4.7-2.9-10.8-1.6-13.8 3.1l-.1.1c-2.9 4.7-1.6 10.8 3.1 13.8a9.9 9.9 0 0013.8-3.1l.1-.1c3-4.6 1.6-10.8-3.1-13.8zm44.8-277.4h.5c5.5 0 10-4.5 10-10s-4.5-10-10-10h-.5c-5.5 0-10 4.4-10 9.9.1 5.6 4.5 10.1 10 10.1z"/>
</svg>
