<svg xmlns="http://www.w3.org/2000/svg" viewBox="0 0 511.81 511.81">
  <defs/>
  <path fill="#ff5364" d="M511.81 108.64v191a13.64 13.64 0 01-13.63 13.65H129.81c-7.53 0-13.64-6.11-13.64-13.64V26.79c0-7.54 6.1-13.64 13.64-13.64h368.36c7.53 0 13.64 6.1 13.64 13.64v81.85z"/>
  <path fill="#fb7b76" d="M508.4 17.85L327.17 172.63a20.4 20.4 0 01-26.33 0L119.6 17.85a13.5 13.5 0 0110.23-4.7h368.36a13.5 13.5 0 0110.23 4.7z"/>
  <path fill="#df4d60" d="M506.97 310.01a13.46 13.46 0 01-8.83 3.27H129.82c-3.24 0-6.38-1.15-8.83-3.27l151.12-161.87 28.73 24.49a20.4 20.4 0 0026.32 0l28.65-24.5 151.16 161.88z"/>
  <path fill="#4fba6f" d="M111.7 153.86l25.33 38a17.36 17.36 0 01-3.79 23.34l-31.2 24.27a17.3 17.3 0 00-4.57 22.07c9.16 16.43 17.82 35.86 60.8 78.85s62.42 51.63 78.86 60.78a17.27 17.27 0 0022.06-4.57l24.26-31.19a17.37 17.37 0 0123.35-3.78l39.2 26.13 44.14 29.4a17.36 17.36 0 015.3 23.4l-20.9 34.83a42.51 42.51 0 01-25.02 19.33c-34.74 9.53-111.35 11.47-234.16-111.35S-5.6 183.94 3.94 149.2a42.5 42.5 0 0119.32-25.02l34.82-20.9a17.37 17.37 0 0123.38 5.3l30.23 45.27z"/>
</svg>
