<svg xmlns="http://www.w3.org/2000/svg" viewBox="0 0 512 512">
  <defs/>
  <path fill="#ffdc64" d="M446.94 160.82l-129.82-12.04-51.56-119.75c-3.62-8.38-15.5-8.38-19.11 0l-51.57 119.75-129.82 12.04c-9.1.84-12.77 12.15-5.9 18.17l97.94 86.05-28.66 127.19c-2.01 8.9 7.6 15.89 15.46 11.23L256 336.89l112.1 66.57c7.85 4.66 17.47-2.33 15.46-11.23l-28.66-127.2L452.85 179c6.86-6.03 3.18-17.33-5.9-18.17z"/>
  <g fill="#fff082">
    <path d="M123.29 24.9c6.62 9.2 25.3 48.68 35.97 71.69 1.68 3.61-2.85 6.88-5.75 4.14-18.43-17.43-49.94-47.67-56.56-56.86a16.23 16.23 0 1126.34-18.96zM388.71 24.9c-6.61 9.2-25.3 48.68-35.97 71.69-1.68 3.61 2.86 6.88 5.75 4.14 18.43-17.43 49.95-47.67 56.56-56.86a16.23 16.23 0 10-26.34-18.96zM493.3 294.47c-10.78-3.51-54.06-9.31-79.23-12.5-3.95-.5-5.69 4.82-2.2 6.75 22.2 12.26 60.6 33.1 71.36 36.6a16.23 16.23 0 1010.06-30.85zM18.7 294.47c10.78-3.51 54.06-9.31 79.23-12.5 3.95-.5 5.69 4.82 2.2 6.75-22.2 12.26-60.59 33.1-71.36 36.6a16.23 16.23 0 11-10.06-30.85zM240.27 477.62c0-11.33 7.9-54.28 12.68-79.2.75-3.9 6.34-3.9 7.1 0 4.77 24.92 12.68 67.87 12.68 79.2a16.23 16.23 0 01-32.46 0z"/>
  </g>
  <path fill="#ffc850" d="M284.3 72.58l-18.75-43.55c-3.6-8.38-15.5-8.38-19.1 0l-51.57 119.75-129.82 12.04c-9.1.84-12.77 12.15-5.9 18.17l97.94 86.05-28.66 127.19c-2.01 8.9 7.6 15.89 15.46 11.23l14.92-8.86c24.46-158.34 93.22-274.57 125.49-322.03z"/>
  <path d="M363.2 267.73l94.6-83.1a17.66 17.66 0 005.2-18.99 17.66 17.66 0 00-15.37-12.29l-125.38-11.63-23.48-54.52a7.5 7.5 0 10-13.78 5.93l25.24 58.61a7.5 7.5 0 006.2 4.5l129.82 12.04a2.77 2.77 0 012.5 2c.21.68.4 1.98-.86 3.07l-97.94 86.05a7.5 7.5 0 00-2.37 7.29l28.67 127.18a2.77 2.77 0 01-1.13 2.99c-.58.42-1.76 1-3.19.15l-112.1-66.57a7.5 7.5 0 00-7.66 0l-112.1 66.57a2.77 2.77 0 01-3.2-.15 2.77 2.77 0 01-1.12-2.98l14.8-65.66a7.5 7.5 0 00-14.63-3.3l-14.8 65.66a17.66 17.66 0 006.94 18.42 17.8 17.8 0 0010.5 3.46c3.13 0 6.29-.85 9.16-2.55L256 345.6l108.27 64.3a17.66 17.66 0 0019.67-.91 17.66 17.66 0 006.94-18.42l-27.69-122.85z"/>
  <path d="M54.2 184.63l94.6 83.1-6.14 27.29a7.5 7.5 0 1014.63 3.3l7.13-31.63a7.5 7.5 0 00-2.37-7.29L64.1 173.35a2.77 2.77 0 01-.84-3.07c.22-.68.84-1.84 2.5-2l129.8-12.04a7.5 7.5 0 006.2-4.5L253.34 32a2.77 2.77 0 012.67-1.76c.71 0 2.01.23 2.67 1.76l14 32.52a7.5 7.5 0 1013.78-5.93l-14-32.53A17.66 17.66 0 00256 15.24a17.66 17.66 0 00-16.44 10.82l-49.81 115.66-125.39 11.63A17.66 17.66 0 0049 165.65a17.66 17.66 0 005.21 18.97z"/>
  <path d="M161.9 118.9a7.49 7.49 0 0011.94-8.6c-3.54-7.77-34.83-76.39-44.47-89.78a23.57 23.57 0 00-15.44-9.55 23.56 23.56 0 00-17.68 4.16 23.76 23.76 0 00-5.4 33.12c9.65 13.39 64.8 64.83 71.05 70.65zm-56.88-91.6a8.66 8.66 0 016.5-1.53 8.67 8.67 0 015.68 3.52c4.54 6.3 16.06 29.72 26.48 51.72-17.56-16.87-36.11-35.22-40.65-41.52a8.74 8.74 0 011.99-12.18zM340.61 119.5a7.48 7.48 0 009.5-.6c6.25-5.82 61.4-57.26 71.03-70.65a23.75 23.75 0 00-5.4-33.12 23.57 23.57 0 00-17.67-4.16 23.58 23.58 0 00-15.44 9.56c-9.64 13.38-40.93 82-44.47 89.78a7.5 7.5 0 002.45 9.19zm54.19-90.21a8.67 8.67 0 017.1-3.63 8.74 8.74 0 017.06 13.83c-4.53 6.3-23.08 24.65-40.64 41.52 10.43-22 21.94-45.42 26.48-51.72zM509.41 299.15a23.57 23.57 0 00-13.8-11.81c-15.68-5.11-90.55-14.08-99.04-15.08a7.51 7.51 0 00-4.56 13.98c7.45 4.2 73.21 41.1 88.9 46.22a23.62 23.62 0 0018.1-1.4 23.57 23.57 0 0011.81-13.8 23.58 23.58 0 00-1.4-18.1zm-12.85 13.46a8.67 8.67 0 01-4.34 5.07 8.67 8.67 0 01-6.67.52c-7.37-2.41-30.5-14.51-51.9-26.11 24.13 3.25 49.94 7.1 57.32 9.51a8.67 8.67 0 015.07 4.35 8.66 8.66 0 01.52 6.66zM123.44 277.38a7.5 7.5 0 00-8.01-5.12c-8.49 1-83.37 9.97-99.05 15.08a23.57 23.57 0 00-13.8 11.81 23.57 23.57 0 00-1.4 18.1A23.57 23.57 0 0013 331.06a23.62 23.62 0 0018.1 1.4c15.7-5.1 81.45-42.01 88.9-46.2a7.5 7.5 0 003.45-8.87zm-97 40.82a8.68 8.68 0 01-6.66-.52 8.68 8.68 0 01-4.34-5.08 8.67 8.67 0 01.52-6.66 8.67 8.67 0 015.07-4.34c7.38-2.4 33.2-6.27 57.32-9.51-21.4 11.6-44.52 23.7-51.9 26.1zM256.5 372.75a7.5 7.5 0 00-7.36 6.03c-1.67 8.38-16.37 82.34-16.37 98.84a23.76 23.76 0 0023.73 23.73 23.76 23.76 0 0023.73-23.73c0-16.5-14.7-90.46-16.38-98.84a7.5 7.5 0 00-7.35-6.03zm0 113.6a8.74 8.74 0 01-8.73-8.73c0-7.76 4.33-33.5 8.73-57.45 4.39 23.95 8.73 49.69 8.73 57.45a8.74 8.74 0 01-8.73 8.73z"/>
</svg>
