<svg xmlns="http://www.w3.org/2000/svg" width="512" height="512" viewBox="0 0 64 64">
  <defs/>
  <path fill="#3c98f4" d="M46 62H2V2h36v8h8z"/>
  <path fill="#c7e2fb" d="M55 46h-3l-5 6-5-6h-3a7 7 0 00-7 7v9h30v-9a7 7 0 00-7-7z"/>
  <path fill="#ebf7fe" d="M52 46l-5 6-5-6h-3a7 7 0 00-7 7v4.75c1.3.16 2.64.25 4 .25 9.6 0 18.06-4.22 23.1-10.66A6.96 6.96 0 0055 46z"/>
  <path fill="#4472b0" d="M38.02 46.08L41 55l6-3-5-6h-3c-.33 0-.66.03-.97.08z"/>
  <path fill="#2d4d81" d="M47 52l-2.8 1.4L46 57h2l1.8-3.6z"/>
  <path fill="#4472b0" d="M55.98 46.08A6.96 6.96 0 0055 46h-3l-5 6 6 3z"/>
  <path fill="#efbe9c" d="M47 44a8.95 8.95 0 01-5-1.52V46l5 6 5-6v-3.52A8.95 8.95 0 0147 44z"/>
  <path fill="#4472b0" d="M50 62l-2-5h-2l-2 5z"/>
  <path fill="#efbe9c" d="M56 33v2a9 9 0 11-18 0v-2h6a6 6 0 004.8-2.4L50 29l1.2 1.6A6 6 0 0056 33z"/>
  <path fill="#efbe9c" d="M38 35v-2h-1.5a2.5 2.5 0 100 5h2.02a8.96 8.96 0 01-.52-3z"/>
  <path fill="#976949" d="M47 20a10 10 0 00-10 10v3h7a6 6 0 004.8-2.4L50 29l1.2 1.6A6 6 0 0056 33h1v-3a10 10 0 00-10-10z"/>
  <path fill="#efbe9c" d="M57.5 33H56v2c0 1.05-.19 2.06-.52 3h2.02a2.5 2.5 0 100-5z"/>
  <g fill="#8ac1f8">
    <path d="M46 10l-8-8v8zM6 10h8v8H6zM6 22h8v8H6zM6 34h8v8H6zM6 46h8v8H6z"/>
  </g>
  <path d="M62 63a1 1 0 001-1v-9a8 8 0 00-8-8h-2v-2.02A10.04 10.04 0 0056.16 39h1.34a3.5 3.5 0 00.5-6.95V30c0-6.07-4.93-11-11-11v-9a1 1 0 00-.3-.7l-8-8A1 1 0 0038 1H2a1 1 0 00-1 1v60a1 1 0 001 1zM41.53 47l3.9 4.67-3.85 1.92-2.2-6.59zm5.15 11h.64l1.2 3h-3.04zm.7-2h-.76l-1.08-2.15 1.46-.73 1.46.73zm1.2-4.33L52.47 47h2.14l-2.2 6.59zM51 45.64l-4 4.8-4-4.8v-1.48a9.93 9.93 0 008 0zM55 35a8 8 0 01-16 0v-1h5c2.2 0 4.29-1.05 5.6-2.8l.4-.53.4.53a7.03 7.03 0 004.6 2.73zm4 .5c0 .83-.67 1.5-1.5 1.5h-.7c.13-.65.2-1.31.2-2v-1h.5c.83 0 1.5.67 1.5 1.5zM56 30v2a5.03 5.03 0 01-4-2l-1.2-1.6c-.38-.5-1.22-.5-1.6 0L48 30a5.03 5.03 0 01-4 2h-6v-2a9.01 9.01 0 0118 0zm-18.8 7h-.7a1.5 1.5 0 010-3h.5v1c0 .69.07 1.35.2 2zM39 4.41L43.59 9H39zM3 3h34v7a1 1 0 001 1h7v8.2c-5.11.94-9 5.42-9 10.8v2.05A3.49 3.49 0 0033.05 35H19v2h14.35a3.5 3.5 0 003.15 2h1.34c.7 1.59 1.8 2.95 3.16 3.98V45h-2c-2.02 0-3.86.76-5.27 2H19v2h13.08a7.93 7.93 0 00-.82 2H19v2h12v8H3zm30 50a6 6 0 014.36-5.77l2.7 8.09a1 1 0 001.39.58l2.3-1.16 1.15 2.3L43.32 61H33zm28 8H50.68l-1.59-3.95 1.16-2.3 2.3 1.14a1 1 0 001.4-.57l2.7-8.08A6 6 0 0161 53z"/>
  <path d="M13.59 9H6a1 1 0 00-1 1v8a1 1 0 001 1h8a1 1 0 001-1v-7.59l2.7-2.7-1.4-1.42zM13 17H7v-6h4.59l-3.3 3.3 1.42 1.4L13 12.42z"/>
  <path d="M13.59 21H6a1 1 0 00-1 1v8a1 1 0 001 1h8a1 1 0 001-1v-7.59l2.7-2.7-1.4-1.42zM13 29H7v-6h4.59l-3.3 3.3 1.42 1.4L13 24.42z"/>
  <path d="M13.59 33H6a1 1 0 00-1 1v8a1 1 0 001 1h8a1 1 0 001-1v-7.59l2.7-2.7-1.4-1.42zM13 41H7v-6h4.59l-3.3 3.3 1.42 1.4L13 36.42z"/>
  <path d="M16.3 42.3L13.58 45H6a1 1 0 00-1 1v8a1 1 0 001 1h8a1 1 0 001-1v-7.59l2.7-2.7zM13 53H7v-6h4.59l-3.3 3.3 1.42 1.4L13 48.42zM19 11h16v2H19zM19 15h16v2H19zM19 23h16v2H19zM19 27h16v2H19zM19 39h16v2H19z"/>
</svg>
