<svg xmlns="http://www.w3.org/2000/svg" width="512" height="512">
  <defs/>
  <g fill-rule="evenodd" clip-rule="evenodd">
    <g fill="#ccf49f">
      <path d="M19.28 205.85c0-3.54 2.89-6.43 6.4-6.43H126c3.55 0 6.44 2.9 6.44 6.43v100.32c0 3.52-2.9 6.41-6.44 6.41H25.68c-3.51 0-6.4-2.9-6.4-6.4zM19.28 56.58c0-3.54 2.89-6.43 6.4-6.43H126c3.55 0 6.44 2.89 6.44 6.43V156.9c0 3.51-2.9 6.4-6.44 6.4H25.68c-3.51 0-6.4-2.89-6.4-6.4zM19.28 355.13c0-3.54 2.89-6.44 6.4-6.44H126c3.55 0 6.44 2.9 6.44 6.44v100.32c0 3.51-2.9 6.4-6.44 6.4H25.68c-3.51 0-6.4-2.89-6.4-6.4z"/>
    </g>
    <path fill="#6aa2e6" d="M459.75 298.92v194.12a12.99 12.99 0 01-11.45 11.48H344.47c-6.01-.69-10.8-5.45-11.45-11.48V298.92z"/>
    <path fill="#a5cdff" d="M346.2 122.6h100.37a46.31 46.31 0 0146.18 46.18v101.14c0 18.23-14.77 33-33 33H333.02a33 33 0 01-33-33V168.78a46.31 46.31 0 0146.18-46.18z"/>
    <path fill="#8abfff" d="M422.3 122.6h24.27a46.31 46.31 0 0146.18 46.18v101.14c0 18.23-14.77 33-33 33H435.5a33 33 0 0033-33V168.78a46.31 46.31 0 00-46.18-46.18z"/>
    <path fill="#ffcbbe" d="M443.17 83.82c0 25.71-21.06 46.77-46.8 46.77a46.93 46.93 0 01-46.77-46.77V33.68c0-14.4 11.8-26.17 26.2-26.17h41.18c14.4 0 26.2 11.77 26.2 26.17v50.14z"/>
    <path fill="#c68b87" d="M349.6 33.68V51.9c13.2 4.9 24.2.77 30.56-2.83 4.9-2.78 5.72-3.35 10.6.94 22.45 19.67 52.41 8.73 52.41 8.73V33.68c0-14.4-11.79-26.17-26.19-26.17h-41.19a26.25 26.25 0 00-26.19 26.17z"/>
    <path fill="#f7beaf" d="M418.9 83.82c0 21.52-14.76 39.77-34.66 45.16a46.55 46.55 0 0012.13 1.61c25.74 0 46.8-21.06 46.8-46.77V58.74s-10.8 3.93-24.26 2.83v22.25z"/>
    <path fill="#bd7d79" d="M418.9 33.68v27.89c13.47 1.1 24.27-2.83 24.27-2.83V33.68c0-14.4-11.79-26.17-26.19-26.17h-24.27c14.4 0 26.2 11.77 26.2 26.17z"/>
    <path fill="#5a94db" d="M435.49 302.91v190.13a13.01 13.01 0 01-11.45 11.48h24.26c6.01-.68 10.8-5.45 11.45-11.48V302.9h-12.53z"/>
    <path fill="#b3e59f" d="M108.17 56.58V156.9c0 3.51-2.89 6.4-6.43 6.4H126c3.54 0 6.44-2.89 6.44-6.4V56.58c0-3.54-2.9-6.43-6.44-6.43h-24.26c3.54 0 6.43 2.89 6.43 6.43zM108.17 205.85v100.32c0 3.52-2.89 6.41-6.43 6.41H126c3.54 0 6.44-2.9 6.44-6.4V205.84c0-3.54-2.9-6.43-6.44-6.43h-24.26c3.54 0 6.43 2.9 6.43 6.43zM108.17 355.13v100.32c0 3.51-2.89 6.4-6.43 6.4H126c3.54 0 6.44-2.89 6.44-6.4V355.13c0-3.54-2.9-6.44-6.44-6.44h-24.26c3.54 0 6.43 2.9 6.43 6.44z"/>
  </g>
  <path d="M467.24 309.75v183.51c0 4.54-2.8 9.81-5.98 12.93-3.2 3.14-8.53 5.81-13.07 5.81H344.5c-4.5 0-9.87-2.75-12.99-5.81-3.26-3.2-5.98-8.45-5.98-13.07V309.75a40.4 40.4 0 01-21.14-11.23 40.28 40.28 0 01-11.82-28.6V168.78c0-14.77 6-28.2 15.73-37.93a53.48 53.48 0 0137.9-15.76h5.9a53.77 53.77 0 01-9.98-31.27V33.7c0-9.24 3.8-17.66 9.89-23.78A33.58 33.58 0 01375.79 0h41.19c9.24 0 17.66 3.8 23.78 9.92a33.68 33.68 0 019.9 23.78v50.12a53.77 53.77 0 01-9.98 31.27h5.9a53.48 53.48 0 0137.9 15.76 53.55 53.55 0 0115.75 37.93v101.14a40.34 40.34 0 01-11.85 28.6 40.41 40.41 0 01-21.14 11.23zM92.78 237.12a7.51 7.51 0 0110.6 0 7.51 7.51 0 010 10.6l-27.15 27.19a7.51 7.51 0 01-10.6 0L48.3 257.59a7.51 7.51 0 0110.63-10.6l11.99 11.99zm0 149.28a7.51 7.51 0 0110.6 0 7.51 7.51 0 010 10.6l-27.15 27.18a7.51 7.51 0 01-10.6 0L48.3 406.86a7.51 7.51 0 0110.63-10.6l11.99 12zm0-298.55a7.51 7.51 0 0110.6 0 7.51 7.51 0 010 10.6L76.23 125.6a7.46 7.46 0 01-10.6 0L48.3 108.31a7.51 7.51 0 0110.63-10.6l11.99 12zm342.88-19.62c-12.22 1.98-33.42 2.35-50.68-13.32-5.9 3.57-15.76 7.85-27.87 6.46v22.45c0 10.8 4.42 20.6 11.54 27.72a39.09 39.09 0 0027.72 11.57c10.8 0 20.61-4.42 27.75-11.57a39.13 39.13 0 0011.54-27.72zm-78.55-21.97c8.48 1.53 17.38-1.22 23.81-6.83a7.5 7.5 0 0110.58.74c14.54 16.72 34.86 14.85 44.16 12.87V33.7c0-5.16-2.1-9.83-5.5-13.23a18.57 18.57 0 00-13.18-5.48h-41.19c-5.16 0-9.8 2.1-13.18 5.48-3.4 3.4-5.5 8.07-5.5 13.23zm10.97 83.82H346.2a38.55 38.55 0 00-27.3 11.37 38.67 38.67 0 00-11.4 27.33v101.11c0 6.72 2.67 13.27 7.49 18.09a25.22 25.22 0 0017.94 7.45h12.59V188.96c0-4.14 3.37-7.51 7.5-7.51s7.5 3.37 7.5 7.51v106.47h71.74V188.96a7.5 7.5 0 1115 0v106.47h12.58c7.03 0 13.35-2.86 17.94-7.46 4.62-4.59 7.46-11 7.46-18.05V168.78c0-10.63-4.34-20.3-11.37-27.33-7-7-16.67-11.37-27.3-11.37h-21.91a53.86 53.86 0 01-56.58 0zM161.7 380.73a7.5 7.5 0 110-15h93.57a7.5 7.5 0 010 15zm0 64.09a7.5 7.5 0 110-15h63.13a7.5 7.5 0 110 15zm0-32.03a7.5 7.5 0 110-15h93.57a7.5 7.5 0 010 15zm0-181.34a7.5 7.5 0 110-15h93.57a7.5 7.5 0 010 15zm0 64.1a7.5 7.5 0 110-15h63.13a7.5 7.5 0 110 15zm0-32.04a7.5 7.5 0 110-15h93.57a7.5 7.5 0 010 15zm0-181.33a7.5 7.5 0 110-15h93.57a7.5 7.5 0 010 15zm0 64.09a7.5 7.5 0 110-15h63.13a7.5 7.5 0 110 15zm0-32.03a7.5 7.5 0 110-15h93.57a7.5 7.5 0 010 15zM11.77 355.13c0-7.68 6.26-13.92 13.92-13.92H126c7.69 0 13.95 6.24 13.95 13.92v100.32c0 7.65-6.3 13.92-13.95 13.92H25.7a14 14 0 01-13.92-13.92zm113.16 1.08H26.76v98.16h98.17zM11.77 56.58a14 14 0 0113.92-13.95H126c7.66 0 13.95 6.3 13.95 13.95V156.9c0 7.65-6.3 13.92-13.95 13.92H25.7a13.96 13.96 0 01-13.92-13.92zm113.16 1.08H26.76v98.16h98.17zM11.77 205.86c0-7.66 6.26-13.92 13.92-13.92H126c7.69 0 13.95 6.23 13.95 13.91v100.32c0 7.66-6.26 13.92-13.95 13.92H25.7a13.96 13.96 0 01-13.92-13.92zm113.16 1.07H26.76v98.17h98.17zM388.89 497V343.85a7.48 7.48 0 017.48-7.49 7.48 7.48 0 017.51 7.49V497h43.97a5.38 5.38 0 004.4-4.19V310.43H340.52V492.8a5.38 5.38 0 004.4 4.2z"/>
</svg>
