<svg xmlns="http://www.w3.org/2000/svg" id="Capa_1" x="0" y="0" version="1.1" viewBox="0 0 437.8 437.8" xml:space="preserve">
  <defs/>
  <style>
    .st1{fill:#00acea}.st2{fill:#083863}
  </style>
  <path fill="#fff" d="M427.4 52.2v333.3c0 20.2-16.4 36.6-36.6 36.6H47.5c-20.2 0-36.6-16.4-36.6-36.6V52.2a36.6 36.6 0 0136.6-36.5h343.2c20.3 0 36.7 16.3 36.7 36.5zm-52.3 317.7V245H245.6v124.9h129.5zm0-177.1V67.9H245.6v124.9h129.5zM192.3 369.9v-302H62.7v302h129.6z"/>
  <path d="M245.6 245h129.6v124.9H245.6zM245.6 67.9h129.6v124.9H245.6zM62.7 67.9h129.6v302H62.7z" class="st1"/>
  <g>
    <path d="M390.8 432.6H47a47 47 0 01-47-47V52.2a47 47 0 0147-47h343.8a47 47 0 0147 47v333.3c0 26-21 47.1-47 47.1zM47 26.1c-14.4 0-26.1 11.7-26.1 26.1v333.3c0 14.4 11.7 26.1 26.1 26.1h343.8c14.4 0 26.1-11.7 26.1-26.1V52.2c0-14.4-11.7-26.1-26.1-26.1H47z" class="st2"/>
    <path d="M192.3 380.3H62.2c-5.8 0-10.4-4.7-10.4-10.4v-302c0-5.8 4.7-10.4 10.4-10.4h130.1c5.8 0 10.4 4.7 10.4 10.4v302c0 5.8-4.7 10.4-10.4 10.4zM72.6 359.4h109.2v-281H72.6v281zM375.1 203.2H245c-5.8 0-10.4-4.7-10.4-10.4V67.9c0-5.8 4.7-10.4 10.4-10.4h130.1c5.8 0 10.4 4.7 10.4 10.4v124.9c.1 5.8-4.6 10.4-10.4 10.4zm-119.6-20.9h109.2v-104H255.5v104zM375.1 380.3H245c-5.8 0-10.4-4.7-10.4-10.4V245c0-5.8 4.7-10.4 10.4-10.4h130.1c5.8 0 10.4 4.7 10.4 10.4v124.9c.1 5.8-4.6 10.4-10.4 10.4zm-119.6-20.9h109.2v-104H255.5v104z" class="st2"/>
  </g>
</svg>
